<?xml version="1.0" standalone="no"?>
<!DOCTYPE svg PUBLIC "-//W3C//DTD SVG 20010904//EN"
 "http://www.w3.org/TR/2001/REC-SVG-20010904/DTD/svg10.dtd">
<svg version="1.0" xmlns="http://www.w3.org/2000/svg"
 width="423.000000pt" height="428.000000pt" viewBox="0 0 423.000000 428.000000"
 preserveAspectRatio="xMidYMid meet">

<g transform="translate(0.000000,428.000000) scale(0.100000,-0.100000)"
fill="#000000" stroke="none">
<path d="M2445 3429 c-158 -15 -338 -65 -465 -129 -93 -47 -228 -150 -309
-236 -293 -309 -367 -684 -209 -1061 30 -74 48 -92 48 -49 0 31 31 169 40 179
4 4 8 -18 9 -50 3 -114 55 -278 150 -478 91 -189 111 -265 112 -414 0 -137
-19 -221 -88 -380 -18 -41 175 50 236 111 92 92 125 188 119 343 -2 69 0 101
7 97 5 -3 35 -22 65 -42 124 -81 251 -120 394 -120 50 0 102 3 115 7 21 5 18
8 -26 27 -109 47 -189 102 -288 201 -134 133 -222 271 -286 445 l-24 65 -3
-47 c-2 -26 1 -87 7 -135 5 -48 8 -90 5 -92 -6 -6 -24 47 -51 149 -32 122 -36
300 -9 400 53 195 220 395 401 481 33 16 69 29 79 29 13 0 4 10 -27 31 -46 30
-117 104 -117 121 0 4 24 -12 54 -36 58 -47 145 -85 214 -94 87 -10 255 30
372 88 121 61 348 252 337 283 -2 7 -47 42 -100 78 -267 183 -499 253 -762
228z m395 -149 c11 -11 20 -28 20 -39 0 -28 -39 -71 -65 -71 -34 0 -67 32 -67
63 0 60 70 89 112 47z"/>
<path d="M1757 3345 c-174 -35 -313 -111 -429 -234 -83 -88 -149 -198 -127
-211 7 -5 47 -11 89 -15 41 -3 89 -8 105 -10 28 -3 34 3 84 81 60 91 184 221
273 284 32 23 93 59 135 80 l78 40 -70 -1 c-38 -1 -101 -7 -138 -14z"/>
<path d="M1235 2651 c-17 -79 -126 -203 -229 -261 -76 -43 -88 -92 -34 -133
36 -27 68 -17 123 41 61 62 120 185 141 290 9 46 14 86 11 88 -3 3 -8 -8 -12
-25z"/>
<path d="M2505 2656 c-71 -18 -113 -38 -170 -81 -53 -40 -139 -136 -163 -180
-17 -34 -9 -68 55 -243 l46 -126 19 90 c23 111 42 170 84 259 38 82 121 211
153 240 25 22 46 55 34 54 -4 0 -30 -6 -58 -13z"/>
<path d="M2476 1809 c-23 -18 -26 -27 -26 -86 0 -116 56 -270 129 -353 l31
-35 -22 50 c-30 68 -37 216 -14 304 9 34 16 71 16 81 0 22 -45 60 -70 60 -10
0 -29 -9 -44 -21z"/>
<path d="M2766 1788 c-44 -51 -75 -131 -81 -212 l-5 -61 14 37 c24 61 72 123
125 162 63 47 74 71 45 100 -27 28 -60 19 -98 -26z"/>
<path d="M2358 1030 c3 -39 -1 -77 -12 -111 -20 -60 -14 -89 18 -89 39 0 49
23 43 98 -4 53 -38 162 -51 162 -1 0 0 -27 2 -60z"/>
</g>
</svg>
